<svg xmlns="http://www.w3.org/2000/svg" viewBox="0 0 1000 1000" role="img" aria-label="singularity">
  <rect width="1000" height="1000" rx="180" fill="#ffffff"/>
  <g transform="translate(125 125) scale(0.75)" fill="#e34234">
    <polygon points="235.72 165 300.71 100 450 100 500 100 550 100 699.29 100 764.29 165 799.65 200.36 870.36 129.65 835 94.29 740.71 0 550 0 500 0 450 0 259.29 0 165.01 94.29 129.65 129.65 200.36 200.36 235.72 165"/>
    <polygon points="764.29 835.01 699.29 900 550 900 500 900 450 900 300.71 900 235.72 835.01 200.36 799.65 129.65 870.36 165.01 905.72 259.29 1000 450 1000 500 1000 550 1000 740.71 1000 835 905.72 870.36 870.36 799.65 799.65 764.29 835.01"/>
    <polygon points="165 764.29 100 699.29 100 550 100 500 100 450 100 300.71 165 235.72 200.36 200.36 129.65 129.65 94.29 165.01 0 259.29 0 450 0 500 0 550 0 740.71 94.29 835 129.65 870.36 200.36 799.65 165 764.29"/>
    <polygon points="905.72 165.01 870.36 129.65 799.65 200.36 835.01 235.72 900 300.71 900 450 900 500 900 550 900 699.29 835.01 764.29 799.65 799.65 870.36 870.36 905.72 835 1000 740.71 1000 550 1000 500 1000 450 1000 259.29 905.72 165.01"/>
    <path d="M914.65,85.35c-9.05-9.05-14.65-21.55-14.65-35.35s5.6-26.3,14.65-35.35,21.55-14.65,35.35-14.65,26.3,5.6,35.35,14.65,14.65,21.55,14.65,35.35-5.6,26.3-14.65,35.35c-9.05,9.05-21.55,14.65-35.35,14.65s-26.3-5.6-35.35-14.65ZM500,500h70.72l50-50,214.29-214.28,70.71-70.71-35.36-35.36-35.36-35.36-70.71,70.71-214.29,214.28-50,50-50-50-214.28-214.28-70.71-70.71-35.36,35.36-35.36,35.36,70.71,70.71,214.28,214.28,50,50h70.72ZM50,100c13.8,0,26.3-5.6,35.35-14.65,9.05-9.05,14.65-21.55,14.65-35.35s-5.6-26.3-14.65-35.35S63.8,0,50,0,23.7,5.6,14.65,14.65,0,36.2,0,50s5.6,26.3,14.65,35.35c9.05,9.05,21.55,14.65,35.35,14.65Z"/>
    <path d="M985.35,914.65c9.05,9.05,14.65,21.55,14.65,35.35s-5.6,26.3-14.65,35.35c-9.05,9.05-21.55,14.65-35.35,14.65s-26.3-5.6-35.35-14.65c-9.05-9.05-14.65-21.55-14.65-35.35s5.6-26.3,14.65-35.35,21.55-14.65,35.35-14.65,26.3,5.6,35.35,14.65ZM835.01,764.29l-214.29-214.29-50-50h-141.44l-50,50-214.28,214.29-70.71,70.71,35.36,35.36,35.36,35.36,70.71-70.71,214.28-214.29,50-50,50,50,214.29,214.29,70.71,70.71,35.36-35.36,35.36-35.36-70.71-70.71ZM50,900c-13.8,0-26.3,5.6-35.35,14.65s-14.65,21.55-14.65,35.35,5.6,26.3,14.65,35.35c9.05,9.05,21.55,14.65,35.35,14.65s26.3-5.6,35.35-14.65c9.05-9.05,14.65-21.55,14.65-35.35s-5.6-26.3-14.65-35.35-21.55-14.65-35.35-14.65Z"/>
  </g>
</svg>
