<?xml version="1.0" encoding="UTF-8"?>
<svg id="a" data-name="layer" xmlns="http://www.w3.org/2000/svg" width="1000" height="1000" viewBox="0 0 1000 1000">
  <g id="b" data-name="guide">
    <rect x="-207.11" y="450" width="1414.21" height="100" transform="translate(-207.11 500) rotate(-45)" style="fill: none;"/>
    <rect x="450" y="-207.11" width="100" height="1414.21" transform="translate(-207.11 500) rotate(-45)" style="fill: none;"/>
    <rect y="450" width="1000" height="100" style="fill: none;"/>
    <rect x="450" width="100" height="1000" style="fill: none;"/>
    <path d="M740.71,1000h-481.42L0,740.71v-481.42L259.29,0h481.42l259.29,259.29v481.42l-259.29,259.29ZM300.71,900h398.58l200.71-200.71v-398.58l-200.71-200.71h-398.58l-200.71,200.71v398.58l200.71,200.71Z" style="fill: none;"/>
    <line x1="1000" y2="1000" style="fill: none;"/>
    <line x2="1000" y2="1000" style="fill: none;"/>
    <circle cx="50" cy="50" r="50" style="fill: none;"/>
    <circle cx="950" cy="50" r="50" style="fill: none;"/>
    <circle cx="950" cy="950" r="50" style="fill: none;"/>
    <circle cx="50" cy="950" r="50" style="fill: none;"/>
  </g>
  <path id="part1" data-name="part1" fill="#ffc616" d="M235.72,165 L300.71,100 L450,100 L500,100 L550,100 L699.29,100 L764.29,165 L799.65,200.36 L870.36,129.65 L835,94.29 L740.71,0 L550,0 L500,0 L450,0 L259.29,0 L165.01,94.29 L129.65,129.65 L200.36,200.36 Z"/>
  <path id="part2" data-name="part2" fill="#fa00e8" d="M764.29,835.01 L699.29,900 L550,900 L500,900 L450,900 L300.71,900 L235.72,835.01 L200.36,799.65 L129.65,870.36 L165.01,905.72 L259.29,1000 L450,1000 L500,1000 L550,1000 L740.71,1000 L835,905.72 L870.36,870.36 L799.65,799.65 Z"/>
  <path id="part3" data-name="part3" fill="#0001c3" d="M165,764.29 L100,699.29 L100,550 L100,500 L100,450 L100,300.71 L165,235.72 L200.36,200.36 L129.65,129.65 L94.29,165.01 L0,259.29 L0,450 L0,500 L0,550 L0,740.71 L94.29,835 L129.65,870.36 L200.36,799.65 Z"/>
  <path id="part4" data-name="part4" fill="#28f4ff" d="M905.72,165.01 L870.36,129.65 L799.65,200.36 L835.01,235.72 L900,300.71 L900,450 L900,500 L900,550 L900,699.29 L835.01,764.29 L799.65,799.65 L870.36,870.36 L905.72,835 L1000,740.71 L1000,550 L1000,500 L1000,450 L1000,259.29 Z"/>
  <path id="part5" data-name="part5" fill="#005f46" d="M914.65,85.35c-9.05-9.05-14.65-21.55-14.65-35.35s5.6-26.3,14.65-35.35,21.55-14.65,35.35-14.65,26.3,5.6,35.35,14.65,14.65,21.55,14.65,35.35-5.6,26.3-14.65,35.35c-9.05,9.05-21.55,14.65-35.35,14.65s-26.3-5.6-35.35-14.65ZM500,500h70.72l50-50,214.29-214.28,70.71-70.71-35.36-35.36-35.36-35.36-70.71,70.71-214.29,214.28-50,50-50-50-214.28-214.28-70.71-70.71-35.36,35.36-35.36,35.36,70.71,70.71,214.28,214.28,50,50h70.72ZM50,100c13.8,0,26.3-5.6,35.35-14.65,9.05-9.05,14.65-21.55,14.65-35.35s-5.6-26.3-14.65-35.35S63.8,0,50,0,23.7,5.6,14.65,14.65,0,36.2,0,50s5.6,26.3,14.65,35.35c9.05,9.05,21.55,14.65,35.35,14.65Z"/>
  <path id="part6" data-name="part6" fill="#8000da" d="M985.35,914.65c9.05,9.05,14.65,21.55,14.65,35.35s-5.6,26.3-14.65,35.35c-9.05,9.05-21.55,14.65-35.35,14.65s-26.3-5.6-35.35-14.65c-9.05-9.05-14.65-21.55-14.65-35.35s5.6-26.3,14.65-35.35,21.55-14.65,35.35-14.65,26.3,5.6,35.35,14.65ZM835.01,764.29l-214.29-214.29-50-50h-141.44l-50,50-214.28,214.29-70.71,70.71,35.36,35.36,35.36,35.36,70.71-70.71,214.28-214.29,50-50,50,50,214.29,214.29,70.71,70.71,35.36-35.36,35.36-35.36-70.71-70.71ZM50,900c-13.8,0-26.3,5.6-35.35,14.65s-14.65,21.55-14.65,35.35,5.6,26.3,14.65,35.35c9.05,9.05,21.55,14.65,35.35,14.65s26.3-5.6,35.35-14.65c9.05-9.05,14.65-21.55,14.65-35.35s-5.6-26.3-14.65-35.35-21.55-14.65-35.35-14.65Z"/>
  <path id="part7" data-name="part7" fill="#7fff04" d="M500,500 L464.64,464.64 L450,450 L379.28,450 L100,450 L0,450 L0,500 L0,550 L100,550 L379.28,550 L450,550 L450,620.72 L450,900 L450,1000 L500,1000 L550,1000 L550,900 L550,620.72 L550,550 L535.36,535.36 Z"/>
  <path id="part8" data-name="part8" fill="#a80069" d="M900,450 L620.72,450 L550,450 L550,379.28 L550,100 L550,0 L500,0 L450,0 L450,100 L450,379.28 L450,450 L464.64,464.64 L500,500 L535.36,535.36 L550,550 L620.72,550 L900,550 L1000,550 L1000,500 L1000,450 Z"/>
</svg>
