<?xml version="1.0" encoding="UTF-8"?>
<svg xmlns="http://www.w3.org/2000/svg" viewBox="0 0 1000 1000">
  <g id="guide" fill="none" stroke="#ffff00">
    <path d="M707.1,1000h-414.2L0,707.1v-414.2L292.9,0h414.2l292.9,292.9v414.2l-292.9,292.9ZM334.3,900h331.4l234.3-234.3v-331.4l-234.3-234.3h-331.4l-234.3,234.3v331.4l234.3,234.3Z" />
    <path d="M0,450 L1000,450 L1000,550 L0,550 Z" />
    <path d="M450,0 L550,0 L550,1000 L450,1000 Z" />
    <path d="M-35.343763,35.360134 L35.366915,-35.350544 L1035.357325,964.639866 L964.646647,1035.350544 Z" />
    <path d="M-35.343763,964.639866 L964.646647,-35.350544 L1035.357325,35.360134 L35.366915,1035.350544 Z" />
    <path d="M0,50 A50,50 0 1 0 100,50 A50,50 0 1 0 0,50 Z" />
    <path d="M900,50 A50,50 0 1 0 1000,50 A50,50 0 1 0 900,50 Z" />
    <path d="M0,950 A50,50 0 1 0 100,950 A50,50 0 1 0 0,950 Z" />
    <path d="M900,950 A50,50 0 1 0 1000,950 A50,50 0 1 0 900,950 Z" />
    <path d="M0,500 L1000,500" />
    <path d="M0,0 L1000,1000" />
    <path d="M1001,0 L0,1000" />
  </g>
  <path id="part1" fill="#ffc616" d="M252.5,181.8 L334.3,100 L450,100 L550,100 L665.7,100 L747.5,181.8 L783.2,217.5 L854,146.9 L818.2,111.1 L707.1,0 L550,0 L450,0 L292.9,0 L181.8,111.1 L146.4,146.5 L217.2,217.2 L252.5,181.8 Z" />
  <path id="part2" fill="#fa00e8" d="M747.5,818.2 L665.7,900 L550,900 L450,900 L334.3,900 L252.5,818.2 L217.3,783 L146.5,853.6 L181.8,888.9 L292.9,1000 L450,1000 L550,1000 L707.1,1000 L818.2,888.9 L853.6,853.6 L782.8,782.8 L747.5,818.2 Z" />
  <path id="part3" fill="#0001c3" d="M181.8,747.5 L100,665.7 L100,550 L100,500 L100,450 L100,334.3 L181.8,252.5 L217.2,217.2 L146.4,146.5 L111.1,181.8 L0,292.9 L0,450 L0,500 L0,550 L0,707.1 L111.1,818.2 L146.5,853.6 L217.3,783 L181.8,747.5 Z" />
  <path id="part4" fill="#28f4ff" d="M888.9,181.8 L854,146.9 L783.2,217.5 L818.2,252.5 L900,334.3 L900,450 L900,500 L900,550 L900,665.7 L818.2,747.5 L782.8,782.8 L853.6,853.6 L888.9,818.2 L1000,707.1 L1000,550 L1000,500 L1000,450 L1000,292.9 L888.9,181.8 Z" />
  <path id="part5" fill="#005f46" d="M915.1,85.8c-9.3-9.1-15.1-21.8-15.1-35.8s5.6-26.3,14.6-35.4c9.1-9,21.6-14.6,35.4-14.6s26.8,5.8,35.8,15.1c8.8,9,14.2,21.3,14.2,34.9s-5.6,26.3-14.6,35.3c-9.1,9-21.6,14.7-35.4,14.7s-25.9-5.4-34.9-14.2ZM620.7,450l-50,50h-141.4l-50-50-197.5-197.5-70.7-70.7,35.4-35.4,35.4-35.4,70.7,70.7,197.5,197.5,50,50,50-50,197.5-197.5,70.7-70.7,35.8,35.8,34.9,34.9-70.7,70.7-197.5,197.5ZM50,0c-13.8,0-26.3,5.6-35.3,14.6C5.6,23.7,0,36.2,0,50s5.6,26.3,14.7,35.3c9,9,21.5,14.7,35.3,14.7s26.3-5.6,35.3-14.7c9.1-9,14.7-21.5,14.7-35.3s-5.6-26.3-14.7-35.4C76.3,5.6,63.8,0,50,0Z" />
  <path id="part6" fill="#8000da" d="M985.4,914.6c9,9.1,14.6,21.6,14.6,35.4s-5.6,26.3-14.6,35.3c-9.1,9-21.6,14.7-35.4,14.7s-26.3-5.6-35.4-14.7c-9-9-14.6-21.5-14.6-35.3s5.6-26.3,14.6-35.4c9.1-9,21.6-14.6,35.4-14.6s26.3,5.6,35.4,14.6ZM550,500h20.7l50,50,197.5,197.5,70.7,70.7-35.4,35.4-35.4,35.4-70.7-70.7-197.5-197.5-50-50-50,50-197.5,197.5-70.7,70.7-35.3-35.3-35.4-35.4,70.7-70.7,197.5-197.5,50-50h70.7l.2.2.2-.2h49.5ZM50,900c-13.8,0-26.3,5.6-35.3,14.6-9.1,9.1-14.7,21.6-14.7,35.4s5.6,26.3,14.7,35.4c9.1,9,21.6,14.6,35.3,14.6s26.3-5.6,35.3-14.7c9.1-9,14.7-21.5,14.7-35.3s-5.6-26.3-14.6-35.3c-9-9.1-21.6-14.7-35.4-14.7Z" />
  <path id="part7" fill="#7fff04" d="M500.2,500.2 L500,500 L464.6,464.6 L450,450 L379.3,450 L100,450 L0,450 L0,500 L0,550 L100,550 L379.3,550 L450,550 L450.4,550 L450,550.5 L450,620.7 L450,900 L450,1000 L550,1000 L550,900 L550,620.7 L550,550 L535.4,535.4 L500.2,500.2 Z" />
  <path id="part8" fill="#a80069" d="M900,450 L620.7,450 L550.6,450 L550,450.5 L550,450 L550,379.3 L550,100 L550,0 L450,0 L450,100 L450,379.3 L450,450 L464.6,464.6 L500,500 L500.5,500 L500.2,500.2 L535.4,535.4 L550,550 L620.7,550 L900,550 L1000,550 L1000,500 L1000,450 L900,450 Z" />
</svg>
